PathFileType	4	(X/Y/Z)	D:\luciana\glass.trc
DataRate	CameraRate	NumFrames	NumMarkers	Units	OrigDataRate	OrigDataStartFrame	OrigNumFrames
250.00	250.00	9	19	mm	250.00	1	2010
Frame#	Time	pelvisR			PelvisL			Trunk1			Trunk2			Trunk3			C7			shoulder			upperArm1			upperArm2			upperArm3			elbow			forearm1			forearm2			forearm3			wrist1			wrist2			wrist3			Object			Hand			
		X1	Y1	Z1	X2	Y2	Z2	X3	Y3	Z3	X4	Y4	Z4	X5	Y5	Z5	X6	Y6	Z6	X7	Y7	Z7	X8	Y8	Z8	X9	Y9	Z9	X10	Y10	Z10	X11	Y11	Z11	X12	Y12	Z12	X13	Y13	Z13	X14	Y14	Z14	X15	Y15	Z15	X16	Y16	Z16	X17	Y17	Z17	X18	Y18	Z18	X19	Y19	Z19	

0	0.000000	1733.649492	645.269811	677.817225	1399.256229	646.836162	663.813949	1608.385086	857.359171	918.531179	1638.108134	767.888904	909.617841	1547.714591	803.381741	905.034184	1568.770409	1131.827474	794.473231	1747.790694	1051.069856	753.520489	1865.352154	878.746092	723.855913	1825.649142	862.581193	786.876082	1805.721045	888.006628	667.813182	1843.175292	746.050239	688.584805	1880.418658	694.511652	626.975358	1824.319959	735.032141	598.590791	1845.055461	652.679265	687.316537	1812.774777	658.496082	492.285639	1840.737462	594.641924	531.794190	1744.236588	668.827355	511.826575	1574.673295	768.313527	247.604609	1784.429789	576.295018	431.305140	
1	0.004000	1733.636618	645.271182	677.831411	1399.255633	646.832943	663.804114	1608.379841	857.323170	918.554425	1638.060689	767.841637	909.635186	1547.706723	803.360820	905.058801	1568.721890	1131.813407	794.547260	1747.767925	1051.078320	753.615141	1865.332246	878.762007	723.881364	1825.628519	862.585127	786.906421	1805.683374	888.038337	667.840421	1843.119860	746.062875	688.591123	1880.412817	694.538474	626.975000	1824.263811	735.041797	598.591268	1845.038176	652.696013	687.317193	1812.750340	658.499837	492.296338	1840.738535	594.660521	531.818688	1744.216084	668.826699	511.825562	1574.670792	768.320203	247.588053	1784.422874	576.321781	431.311101	
2	0.008000	1733.639598	645.275295	677.824259	1399.274707	646.809042	663.813591	1608.366847	857.305110	918.586612	1638.050079	767.821789	909.642935	1547.696590	803.338110	905.086219	1568.698764	1131.804943	794.607878	1747.741818	1051.091909	753.670573	1865.310192	878.767490	723.905504	1825.614572	862.590134	786.942542	1805.659652	888.061345	667.862058	1843.081355	746.083498	688.606203	1880.392551	694.557965	626.973093	1824.247360	735.048711	598.596931	1845.017433	652.715504	687.329173	1812.739611	658.507407	492.302984	1840.736151	594.668090	531.821430	1744.201303	668.832541	511.821151	1574.664593	768.321514	247.584328	1784.416318	576.326787	431.315005	
3	0.012000	1733.640432	645.281076	677.841544	1399.279237	646.822035	663.812518	1608.350635	857.275367	918.609738	1638.038874	767.800033	909.668446	1547.684312	803.313315	905.116200	1568.679571	1131.800771	794.678211	1747.712612	1051.104188	753.730059	1865.288615	878.772974	723.937631	1825.605512	862.592816	786.964297	1805.635333	888.088167	667.899847	1843.058586	746.115625	688.622296	1880.372405	694.579840	626.978278	1824.221253	735.067487	598.604798	1844.995618	652.736366	687.342107	1812.721968	658.518314	492.299169	1840.721130	594.698191	531.826615	1744.181514	668.835819	511.817575	1574.679613	768.322825	247.589856	1784.408808	576.319218	431.318283	
4	0.016000	1733.638763	645.276368	677.827477	1399.280787	646.812797	663.805187	1608.308792	857.234538	918.630064	1638.016701	767.772019	909.676969	1547.675729	803.289115	905.123830	1568.658352	1131.794453	794.765234	1747.690201	1051.101804	753.799915	1865.262032	878.786802	723.969817	1825.595617	862.591505	786.998093	1805.604935	888.117313	667.952538	1843.016386	746.126831	688.624144	1880.358458	694.618821	627.000988	1824.189901	735.075653	598.610222	1844.982982	652.752101	687.344790	1812.702417	658.532739	492.298096	1840.728283	594.718158	531.825662	1744.162560	668.840647	511.831164	1574.688315	768.327117	247.590542	1784.389377	576.316237	431.317270	
5	0.020000	1733.630776	645.268917	677.809358	1399.260759	646.779537	663.803101	1608.306289	857.204616	918.669939	1638.012648	767.747283	909.700811	1547.675133	803.268135	905.145645	1568.643570	1131.801724	794.835806	1747.681975	1051.110029	753.862500	1865.232229	878.805876	723.995566	1825.574994	862.585604	787.023187	1805.566072	888.126493	667.980492	1842.988133	746.138811	688.626707	1880.345583	694.657207	626.988351	1824.164629	735.088706	598.610640	1844.969034	652.769685	687.341571	1813.387990	658.668697	491.847992	1840.717793	594.730675	531.816363	1744.255304	669.158518	511.309981	1574.690104	768.317759	247.580290	1784.384966	576.319695	431.313932	
6	0.024000	1733.634472	645.282209	677.827656	1399.236798	646.771073	663.788915	1608.296394	857.177377	918.702960	1637.999535	767.725289	909.726977	1547.667027	803.251505	905.172467	1568.620920	1131.807327	794.909298	1747.668028	1051.117778	753.925920	1865.208983	878.819168	724.021494	1825.565100	862.592578	787.050068	1805.526495	888.157964	668.019533	1842.967153	746.163547	688.630164	1880.315185	694.674015	626.989543	1824.149489	735.108733	598.618567	1844.963789	652.797282	687.347054	1814.967155	658.965290	490.839005	1840.710163	594.754696	531.820178	1744.497061	669.867277	510.139227	1574.676037	768.309593	247.588158	1784.379244	576.329112	431.322485	
7	0.028000	1733.628035	645.287752	677.833796	1399.223804	646.780491	663.760662	1608.281493	857.159734	918.748736	1637.977004	767.702341	909.751236	1547.674775	803.236723	905.210018	1568.603516	1131.802917	794.989347	1747.652054	1051.134706	754.014790	1865.200520	878.847480	724.052608	1825.557470	862.599134	787.081182	1805.504918	888.193130	668.060660	1842.948198	746.174693	688.639760	1880.306125	694.693327	627.018511	1824.136019	735.128701	598.632216	1844.944358	652.818382	687.359989	1815.350652	659.056425	490.588069	1840.703249	594.763160	531.828403	1744.543195	670.054972	509.854496	1574.663520	768.306077	247.586951	1784.366846	576.326966	431.329101	
8	0.032000	1733.633637	645.288527	677.846313	1399.213910	646.808863	663.787603	1608.279705	857.131422	918.800473	1637.976170	767.685175	909.764469	1547.668099	803.207934	905.246377	1568.588018	1131.802082	795.059502	1747.637987	1051.145554	754.084170	1865.234613	878.835559	723.947763	1825.540066	862.600088	787.103534	1805.439115	888.190866	668.156266	1842.925668	746.189117	688.640773	1880.288720	694.714129	627.025366	1824.106455	735.141754	598.639727	1844.924212	652.831435	687.370300	1815.431952	659.085989	490.527272	1840.707779	594.779491	531.835079	1744.543791	670.107365	509.780705	1574.673891	768.313348	247.582525	1784.353614	576.331258	431.329012	
